<svg width="75" height="37" viewBox="0 0 75 37" fill="none" xmlns="http://www.w3.org/2000/svg">
<g id="Logo">
<path id="X" fill-rule="evenodd" clip-rule="evenodd" d="M30.7819 1.965C29.607 0.796821 27.702 0.796822 26.527 1.96501L17.6803 10.7608L8.83353 1.96503C7.65858 0.796847 5.7536 0.796845 4.57865 1.96503L0.881215 5.64116C-0.293738 6.80934 -0.293737 8.70334 0.881217 9.87152L9.72796 18.6673L0.881216 27.4631C-0.293738 28.6312 -0.293739 30.5252 0.881214 31.6934L4.57865 35.3695C5.7536 36.5377 7.65858 36.5377 8.83353 35.3695L17.6803 26.5738L26.527 35.3696C27.702 36.5378 29.607 36.5378 30.7819 35.3696L34.4794 31.6934C35.6543 30.5253 35.6543 28.6313 34.4794 27.4631L25.6326 18.6673L34.4794 9.8715C35.6543 8.70331 35.6543 6.80932 34.4794 5.64113L30.7819 1.965Z" fill="#008AFF"/>
<path id="O" fill-rule="evenodd" clip-rule="evenodd" d="M74.6538 18C74.6538 8.33502 66.8188 0.5 57.1538 0.5C47.4888 0.5 39.6538 8.33502 39.6538 18C39.6538 27.665 47.4888 35.5 57.1538 35.5C66.8188 35.5 74.6538 27.665 74.6538 18ZM50.0242 18C50.0242 14.0624 53.2162 10.8704 57.1538 10.8704C61.0914 10.8704 64.2834 14.0624 64.2834 18C64.2834 21.9376 61.0914 25.1296 57.1538 25.1296C53.2162 25.1296 50.0242 21.9376 50.0242 18Z" fill="#FFAA00"/>
</g>
</svg>
